<svg id="Capa_1" data-name="Capa 1" xmlns="http://www.w3.org/2000/svg" viewBox="0 0 503.12 503.13"><defs><style>.cls-1{fill:#fff;}</style></defs><path class="cls-1" d="M290.65,0,396.11,75.47c-6.79,10.19-80.69,65-104.66,77.52-.29-9.65-.49-18.31-.81-27-.48-12.69-1-13.67-13.9-13.57-15.94.13-32.1-.23-47.77,2.16C167.38,124,120.13,177.76,118.12,240.06c-.75,23.35-.07,46.75-.36,70.13-.16,12.92-.53,13.19-13.79,13.37-15.4.21-30.81-.07-46.21.07-6.36.05-9.7-2.62-9.49-9.08,1.39-41.49-4.28-83.28,5.65-124.39A192,192,0,0,1,234.34,43.51c14.26-.45,28.54,0,42.79-.31,12.45-.31,13.17-1.21,13.48-14.06C290.81,20.79,290.65,12.44,290.65,0Z"/><path class="cls-1" d="M211.56,352.82c.45,13,.83,22.43,1.08,31.85.14,5.66,1.41,10.19,8.33,10.5,37.57,1.68,74.16-.43,106.41-23.47,37.43-26.76,56.75-63.08,58.3-108.75.73-21.64,0-43.33.27-65,.15-13.33.41-13.55,13.31-13.76,14.82-.24,29.66.05,44.49-.08,6.67-.06,11.16,1.86,10.91,9.54-1.25,39.24,4,78.79-3.94,117.7-17.91,87.47-94.72,151.06-184,152.93q-21.39.45-42.78.08c-8.05-.15-11.44,3.39-11.27,11.25.19,9,0,18.09,0,27.51-12.77-3.22-83.13-51.94-107.29-74C139.77,403.8,174.18,379.36,211.56,352.82Z"/></svg>